<?xml version="1.0" encoding="utf-8"?>

<!DOCTYPE svg PUBLIC "-//W3C//DTD SVG 1.1//EN" "http://www.w3.org/Graphics/SVG/1.1/DTD/svg11.dtd">
<!-- Uploaded to: SVG Repo, www.svgrepo.com, Generator: SVG Repo Mixer Tools -->
<svg height="800px" width="800px" version="1.1" id="_x32_" xmlns="http://www.w3.org/2000/svg" xmlns:xlink="http://www.w3.org/1999/xlink" 
	 viewBox="0 0 512 512"  xml:space="preserve">
<style type="text/css">
	.st0{fill:#000000;}
</style>
<g>
	<path class="st0" d="M256,0C114.837,0,0,114.838,0,256c0,141.162,114.837,256,256,256c141.162,0,256-114.838,256-256
		C512,114.838,397.162,0,256,0z M256,466.052c-115.998,0-210.052-94.054-210.052-210.052S140.002,45.948,256,45.948
		c115.998,0,210.052,94.054,210.052,210.053S371.998,466.052,256,466.052z"/>
	<path class="st0" d="M331.927,190.75c-0.783-0.463-1.745-0.435-2.5,0.006l-83.676,49.958v-47.807c0-0.912-0.477-1.738-1.239-2.158
		c-0.784-0.463-1.745-0.435-2.5,0.006l-105.72,63.12c-0.762,0.442-1.21,1.24-1.21,2.116c0,0.876,0.448,1.702,1.21,2.13l105.72,63.12
		c0.756,0.441,1.717,0.47,2.5,0.021c0.762-0.435,1.239-1.275,1.239-2.158v-47.821l83.676,49.958c0.755,0.441,1.717,0.47,2.5,0.021
		c0.748-0.435,1.232-1.275,1.232-2.158v-63.113v-63.085C333.159,191.997,332.674,191.17,331.927,190.75z"/>
</g>
</svg>